<svg width="80" height="85" viewBox="0 0 80 85" fill="none" xmlns="http://www.w3.org/2000/svg">
<path d="M38.8095 55.8062C38.8095 52.6895 37.9967 50.0758 36.3713 47.9543C35.2194 46.4952 33.6576 45.5354 31.6824 45.0785C29.7389 44.6252 27.9015 44.5933 26.2408 44.9793C25.6754 41.6148 26.5941 38.0518 28.9262 34.2764C31.2583 30.5045 34.2795 27.6641 37.9649 25.7658L32.382 17.7085C29.5552 19.111 26.8697 20.8889 24.3963 23.0387C21.8875 25.1885 19.6614 27.6606 17.6826 30.455C15.7038 33.2493 14.2197 36.405 13.2657 39.982C12.3116 43.5591 12.0431 47.207 12.4989 50.9612C13.0926 55.9196 14.6897 59.8862 17.2904 62.8258C19.8875 65.8008 23.1277 67.2883 27.0005 67.2883C30.4103 67.2883 33.2406 66.2612 35.4809 64.1787C37.6999 62.1387 38.8024 59.3443 38.8024 55.7921L38.8095 55.8027V55.8062ZM71.0492 55.8062C71.0492 52.6895 70.2365 50.0758 68.6111 47.9543C67.4592 46.4668 65.8903 45.5035 63.9221 45.0608C61.9434 44.6216 60.1271 44.6004 58.4805 44.9829C57.9152 41.6537 58.7985 38.0766 61.1307 34.287C63.4628 30.5329 66.4804 27.6995 70.1658 25.787L64.597 17.7085C61.7702 19.111 59.1024 20.8889 56.6113 23.0387C54.0796 25.2204 51.8312 27.7119 49.9188 30.455C47.9542 33.2529 46.4913 36.405 45.5373 39.982C44.5717 43.557 44.3113 47.2863 44.7705 50.9612C45.3535 55.9196 46.9436 59.8862 49.5407 62.8258C52.1273 65.776 55.3569 67.2529 59.2296 67.2529C62.6465 67.2529 65.4769 66.2258 67.7171 64.1504C69.9326 62.1104 71.0457 59.316 71.0457 55.7637V55.7991L71.0492 55.8062Z" fill="#B78D65"/>
</svg>
